<svg data-v-423bf9ae="" xmlns="http://www.w3.org/2000/svg" viewBox="0 0 335.97753575207963 60" class="font"><!----><!----><!----><g data-v-423bf9ae="" id="784dfd7c-044b-4702-b787-e0a22714cc0b" fill="white" transform="matrix(5.612721889848748,0,0,5.612721889848748,-3.3115083810519366,0.3367637440052107)"><path d="M6.55 2.86L6.55 5.01L6.55 5.01Q6.55 5.67 6.34 6.16L6.34 6.16L6.34 6.16Q6.13 6.65 5.77 6.99L5.77 6.99L5.77 6.99Q5.40 7.32 4.91 7.49L4.91 7.49L4.91 7.49Q4.42 7.66 3.86 7.66L3.86 7.66L2.97 7.66L2.97 10.37L3.09 10.50L0.59 10.50L0.71 10.37L0.71 0.29L0.59 0.17L3.86 0.17L3.86 0.17Q4.42 0.17 4.91 0.31L4.91 0.31L4.91 0.31Q5.40 0.46 5.77 0.78L5.77 0.78L5.77 0.78Q6.13 1.11 6.34 1.62L6.34 1.62L6.34 1.62Q6.55 2.13 6.55 2.86L6.55 2.86ZM4.30 5.11L4.30 2.70L4.30 2.70Q4.30 2.52 4.17 2.39L4.17 2.39L4.17 2.39Q4.05 2.27 3.86 2.27L3.86 2.27L2.97 2.27L2.97 5.56L3.86 5.56L3.86 5.56Q4.05 5.56 4.17 5.43L4.17 5.43L4.17 5.43Q4.30 5.31 4.30 5.11L4.30 5.11ZM9.83 7.83L9.83 7.83L9.83 7.83Q9.83 8.13 10.06 8.29L10.06 8.29L10.06 8.29Q10.29 8.46 10.56 8.46L10.56 8.46L10.56 8.46Q10.84 8.47 11.07 8.32L11.07 8.32L11.07 8.32Q11.31 8.18 11.33 7.87L11.33 7.87L13.36 7.87L13.36 7.87Q13.36 8.61 13.15 9.11L13.15 9.11L13.15 9.11Q12.95 9.62 12.59 9.94L12.59 9.94L12.59 9.94Q12.22 10.26 11.71 10.40L11.71 10.40L11.71 10.40Q11.20 10.54 10.57 10.54L10.57 10.54L10.57 10.54Q9.20 10.54 8.43 9.83L8.43 9.83L8.43 9.83Q7.66 9.11 7.66 7.84L7.66 7.84L7.66 5.14L7.66 5.14Q7.66 4.58 7.81 4.08L7.81 4.08L7.81 4.08Q7.95 3.58 8.29 3.21L8.29 3.21L8.29 3.21Q8.64 2.84 9.21 2.63L9.21 2.63L9.21 2.63Q9.77 2.41 10.60 2.41L10.60 2.41L10.60 2.41Q11.91 2.41 12.63 3.04L12.63 3.04L12.63 3.04Q13.34 3.68 13.34 5.00L13.34 5.00L13.34 5.00Q13.34 5.74 13.03 6.20L13.03 6.20L13.03 6.20Q12.71 6.65 12.21 6.95L12.21 6.95L12.21 6.95Q11.70 7.25 11.07 7.44L11.07 7.44L11.07 7.44Q10.44 7.63 9.83 7.83ZM11.27 5.03L11.27 5.03L11.27 5.03Q11.27 4.76 11.05 4.63L11.05 4.63L11.05 4.63Q10.82 4.49 10.55 4.49L10.55 4.49L10.55 4.49Q10.28 4.49 10.05 4.62L10.05 4.62L10.05 4.62Q9.83 4.75 9.83 4.98L9.83 4.98L9.83 5.77L9.83 5.77Q10.30 5.68 10.59 5.60L10.59 5.60L10.59 5.60Q10.88 5.52 11.03 5.43L11.03 5.43L11.03 5.43Q11.19 5.35 11.23 5.25L11.23 5.25L11.23 5.25Q11.27 5.15 11.27 5.03ZM17.93 8.37L17.93 8.37L18.55 8.37L18.73 8.26L18.73 10.63L18.54 10.53L17.79 10.53L17.79 10.53Q17.39 10.53 16.99 10.46L16.99 10.46L16.99 10.46Q16.59 10.40 16.23 10.21L16.23 10.21L16.23 10.21Q15.88 10.02 15.58 9.68L15.58 9.68L15.58 9.68Q15.29 9.34 15.11 8.78L15.11 8.78L15.11 4.52L14.35 4.52L14.20 4.65L14.20 2.25L14.35 2.39L15.11 2.39L15.11 0.08L14.95-0.06L17.46-0.06L17.30 0.11L17.30 2.39L18.44 2.39L18.59 2.25L18.59 4.65L18.44 4.52L17.30 4.52L17.30 8.02L17.30 8.02Q17.37 8.18 17.54 8.28L17.54 8.28L17.54 8.28Q17.71 8.39 17.93 8.37ZM21.90 7.83L21.90 7.83L21.90 7.83Q21.90 8.13 22.13 8.29L22.13 8.29L22.13 8.29Q22.36 8.46 22.63 8.46L22.63 8.46L22.63 8.46Q22.90 8.47 23.14 8.32L23.14 8.32L23.14 8.32Q23.38 8.18 23.39 7.87L23.39 7.87L25.42 7.87L25.42 7.87Q25.42 8.61 25.22 9.11L25.22 9.11L25.22 9.11Q25.02 9.62 24.65 9.94L24.65 9.94L24.65 9.94Q24.29 10.26 23.78 10.40L23.78 10.40L23.78 10.40Q23.27 10.54 22.64 10.54L22.64 10.54L22.64 10.54Q21.27 10.54 20.50 9.83L20.50 9.83L20.50 9.83Q19.73 9.11 19.73 7.84L19.73 7.84L19.73 5.14L19.73 5.14Q19.73 4.58 19.87 4.08L19.87 4.08L19.87 4.08Q20.02 3.58 20.36 3.21L20.36 3.21L20.36 3.21Q20.71 2.84 21.27 2.63L21.27 2.63L21.27 2.63Q21.84 2.41 22.67 2.41L22.67 2.41L22.67 2.41Q23.98 2.41 24.70 3.04L24.70 3.04L24.70 3.04Q25.41 3.68 25.41 5.00L25.41 5.00L25.41 5.00Q25.41 5.74 25.09 6.20L25.09 6.20L25.09 6.20Q24.78 6.65 24.28 6.95L24.28 6.95L24.28 6.95Q23.77 7.25 23.14 7.44L23.14 7.44L23.14 7.44Q22.51 7.63 21.90 7.83ZM23.34 5.03L23.34 5.03L23.34 5.03Q23.34 4.76 23.11 4.63L23.11 4.63L23.11 4.63Q22.89 4.49 22.62 4.49L22.62 4.49L22.62 4.49Q22.34 4.49 22.12 4.62L22.12 4.62L22.12 4.62Q21.90 4.75 21.90 4.98L21.90 4.98L21.90 5.77L21.90 5.77Q22.37 5.68 22.66 5.60L22.66 5.60L22.66 5.60Q22.95 5.52 23.10 5.43L23.10 5.43L23.10 5.43Q23.25 5.35 23.30 5.25L23.30 5.25L23.30 5.25Q23.34 5.15 23.34 5.03ZM26.80 2.44L26.68 2.44L26.80 2.44ZM26.68 2.44L26.80 2.44L27.72 3.05L27.72 3.05Q28.06 2.69 28.51 2.55L28.51 2.55L28.51 2.55Q28.97 2.41 29.41 2.41L29.41 2.41L29.41 2.41Q29.83 2.41 30.30 2.54L30.30 2.54L30.30 2.54Q30.77 2.67 31.37 3.09L31.37 3.09L31.95 3.58L30.70 5.29L30.70 5.29Q30.34 4.94 30.06 4.79L30.06 4.79L30.06 4.79Q29.78 4.65 29.56 4.63L29.56 4.63L29.56 4.63Q29.34 4.61 29.19 4.67L29.19 4.67L29.19 4.67Q29.04 4.73 28.92 4.80L28.92 4.80L28.92 10.37L29.05 10.50L26.56 10.50L26.68 10.37L26.68 2.44ZM34.87 0.17L34.87 0.17L41.06 0.17L41.06 2.34L39.12 2.34L39.12 10.37L39.24 10.50L36.74 10.50L36.86 10.37L36.86 2.34L34.87 2.34L34.87 0.17ZM44.06 7.83L44.06 7.83L44.06 7.83Q44.06 8.13 44.29 8.29L44.29 8.29L44.29 8.29Q44.52 8.46 44.79 8.46L44.79 8.46L44.79 8.46Q45.07 8.47 45.30 8.32L45.30 8.32L45.30 8.32Q45.54 8.18 45.56 7.87L45.56 7.87L47.59 7.87L47.59 7.87Q47.59 8.61 47.38 9.11L47.38 9.11L47.38 9.11Q47.18 9.62 46.82 9.94L46.82 9.94L46.82 9.94Q46.45 10.26 45.94 10.40L45.94 10.40L45.94 10.40Q45.43 10.54 44.80 10.54L44.80 10.54L44.80 10.54Q43.43 10.54 42.66 9.83L42.66 9.83L42.66 9.83Q41.89 9.11 41.89 7.84L41.89 7.84L41.89 5.14L41.89 5.14Q41.89 4.58 42.03 4.08L42.03 4.08L42.03 4.08Q42.18 3.58 42.52 3.21L42.52 3.21L42.52 3.21Q42.87 2.84 43.43 2.63L43.43 2.63L43.43 2.63Q44.00 2.41 44.83 2.41L44.83 2.41L44.83 2.41Q46.14 2.41 46.86 3.04L46.86 3.04L46.86 3.04Q47.57 3.68 47.57 5.00L47.57 5.00L47.57 5.00Q47.57 5.74 47.26 6.20L47.26 6.20L47.26 6.20Q46.94 6.65 46.44 6.95L46.44 6.95L46.44 6.95Q45.93 7.25 45.30 7.44L45.30 7.44L45.30 7.44Q44.67 7.63 44.06 7.83ZM45.50 5.03L45.50 5.03L45.50 5.03Q45.50 4.76 45.28 4.63L45.28 4.63L45.28 4.63Q45.05 4.49 44.78 4.49L44.78 4.49L44.78 4.49Q44.51 4.49 44.28 4.62L44.28 4.62L44.28 4.62Q44.06 4.75 44.06 4.98L44.06 4.98L44.06 5.77L44.06 5.77Q44.53 5.68 44.82 5.60L44.82 5.60L44.82 5.60Q45.11 5.52 45.26 5.43L45.26 5.43L45.26 5.43Q45.42 5.35 45.46 5.25L45.46 5.25L45.46 5.25Q45.50 5.15 45.50 5.03ZM51.44 4.58L51.44 4.58L51.44 4.58Q51.25 4.58 51.13 4.70L51.13 4.70L51.13 4.70Q51.00 4.83 51.00 5.03L51.00 5.03L51.00 7.92L51.00 7.92Q51.00 8.11 51.13 8.23L51.13 8.23L51.13 8.23Q51.25 8.36 51.44 8.36L51.44 8.36L53.12 8.36L53.30 8.27L53.30 10.60L53.10 10.50L51.44 10.50L51.44 10.50Q50.86 10.50 50.38 10.37L50.38 10.37L50.38 10.37Q49.90 10.23 49.54 9.93L49.54 9.93L49.54 9.93Q49.18 9.63 48.98 9.14L48.98 9.14L48.98 9.14Q48.78 8.65 48.78 7.94L48.78 7.94L48.78 5.00L48.78 5.00Q48.78 4.44 48.98 3.96L48.98 3.96L48.98 3.96Q49.18 3.49 49.53 3.14L49.53 3.14L49.53 3.14Q49.88 2.80 50.36 2.61L50.36 2.61L50.36 2.61Q50.83 2.42 51.39 2.42L51.39 2.42L52.96 2.42L53.16 2.32L53.16 4.66L52.98 4.58L51.44 4.58ZM58.07 5.01L58.07 5.01L58.07 5.01Q58.07 4.83 57.95 4.70L57.95 4.70L57.95 4.70Q57.82 4.58 57.64 4.58L57.64 4.58L56.81 4.58L56.81 10.36L56.94 10.50L54.42 10.50L54.57 10.36L54.57 0.36L54.45 0.20L56.95 0.20L56.83 0.38L56.83 2.42L57.67 2.42L57.67 2.42Q58.35 2.42 58.85 2.61L58.85 2.61L58.85 2.61Q59.35 2.80 59.67 3.15L59.67 3.15L59.67 3.15Q59.99 3.50 60.14 4.00L60.14 4.00L60.14 4.00Q60.30 4.51 60.30 5.11L60.30 5.11L60.30 10.36L60.45 10.50L57.93 10.50L58.07 10.37L58.07 5.01Z"></path></g><!----><!----></svg>