<svg data-v-423bf9ae="" xmlns="http://www.w3.org/2000/svg" viewBox="0 0 446 90" class="iconLeftSlogan"><!----><!----><!----><g data-v-423bf9ae="" id="10b42460-b366-4010-9c91-9228d65f9a44" fill="white" transform="matrix(5.612721889848748,0,0,5.612721889848748,106.68849161894806,0.3367637440052107)"><path d="M6.55 2.86L6.55 5.01L6.55 5.01Q6.55 5.67 6.34 6.16L6.34 6.16L6.34 6.16Q6.13 6.65 5.77 6.99L5.77 6.99L5.77 6.99Q5.40 7.32 4.91 7.49L4.91 7.49L4.91 7.49Q4.42 7.66 3.86 7.66L3.86 7.66L2.97 7.66L2.97 10.37L3.09 10.50L0.59 10.50L0.71 10.37L0.71 0.29L0.59 0.17L3.86 0.17L3.86 0.17Q4.42 0.17 4.91 0.31L4.91 0.31L4.91 0.31Q5.40 0.46 5.77 0.78L5.77 0.78L5.77 0.78Q6.13 1.11 6.34 1.62L6.34 1.62L6.34 1.62Q6.55 2.13 6.55 2.86L6.55 2.86ZM4.30 5.11L4.30 2.70L4.30 2.70Q4.30 2.52 4.17 2.39L4.17 2.39L4.17 2.39Q4.05 2.27 3.86 2.27L3.86 2.27L2.97 2.27L2.97 5.56L3.86 5.56L3.86 5.56Q4.05 5.56 4.17 5.43L4.17 5.43L4.17 5.43Q4.30 5.31 4.30 5.11L4.30 5.11ZM9.83 7.83L9.83 7.83L9.83 7.83Q9.83 8.13 10.06 8.29L10.06 8.29L10.06 8.29Q10.29 8.46 10.56 8.46L10.56 8.46L10.56 8.46Q10.84 8.47 11.07 8.32L11.07 8.32L11.07 8.32Q11.31 8.18 11.33 7.87L11.33 7.87L13.36 7.87L13.36 7.87Q13.36 8.61 13.15 9.11L13.15 9.11L13.15 9.11Q12.95 9.62 12.59 9.94L12.59 9.94L12.59 9.94Q12.22 10.26 11.71 10.40L11.71 10.40L11.71 10.40Q11.20 10.54 10.57 10.54L10.57 10.54L10.57 10.54Q9.20 10.54 8.43 9.83L8.43 9.83L8.43 9.83Q7.66 9.11 7.66 7.84L7.66 7.84L7.66 5.14L7.66 5.14Q7.66 4.58 7.81 4.08L7.81 4.08L7.81 4.08Q7.95 3.58 8.29 3.21L8.29 3.21L8.29 3.21Q8.64 2.84 9.21 2.63L9.21 2.63L9.21 2.63Q9.77 2.41 10.60 2.41L10.60 2.41L10.60 2.41Q11.91 2.41 12.63 3.04L12.63 3.04L12.63 3.04Q13.34 3.68 13.34 5.00L13.34 5.00L13.34 5.00Q13.34 5.74 13.03 6.20L13.03 6.20L13.03 6.20Q12.71 6.65 12.21 6.95L12.21 6.95L12.21 6.95Q11.70 7.25 11.07 7.44L11.07 7.44L11.07 7.44Q10.44 7.63 9.83 7.83ZM11.27 5.03L11.27 5.03L11.27 5.03Q11.27 4.76 11.05 4.63L11.05 4.63L11.05 4.63Q10.82 4.49 10.55 4.49L10.55 4.49L10.55 4.49Q10.28 4.49 10.05 4.62L10.05 4.62L10.05 4.62Q9.83 4.75 9.83 4.98L9.83 4.98L9.83 5.77L9.83 5.77Q10.30 5.68 10.59 5.60L10.59 5.60L10.59 5.60Q10.88 5.52 11.03 5.43L11.03 5.43L11.03 5.43Q11.19 5.35 11.23 5.25L11.23 5.25L11.23 5.25Q11.27 5.15 11.27 5.03ZM17.93 8.37L17.93 8.37L18.55 8.37L18.73 8.26L18.73 10.63L18.54 10.53L17.79 10.53L17.79 10.53Q17.39 10.53 16.99 10.46L16.99 10.46L16.99 10.46Q16.59 10.40 16.23 10.21L16.23 10.21L16.23 10.21Q15.88 10.02 15.58 9.68L15.58 9.68L15.58 9.68Q15.29 9.34 15.11 8.78L15.11 8.78L15.11 4.52L14.35 4.52L14.20 4.65L14.20 2.25L14.35 2.39L15.11 2.39L15.11 0.08L14.95-0.06L17.46-0.06L17.30 0.11L17.30 2.39L18.44 2.39L18.59 2.25L18.59 4.65L18.44 4.52L17.30 4.52L17.30 8.02L17.30 8.02Q17.37 8.18 17.54 8.28L17.54 8.28L17.54 8.28Q17.71 8.39 17.93 8.37ZM21.90 7.83L21.90 7.83L21.90 7.83Q21.90 8.13 22.13 8.29L22.13 8.29L22.13 8.29Q22.36 8.46 22.63 8.46L22.63 8.46L22.63 8.46Q22.90 8.47 23.14 8.32L23.14 8.32L23.14 8.32Q23.38 8.18 23.39 7.87L23.39 7.87L25.42 7.87L25.42 7.87Q25.42 8.61 25.22 9.11L25.22 9.11L25.22 9.11Q25.02 9.62 24.65 9.94L24.65 9.94L24.65 9.94Q24.29 10.26 23.78 10.40L23.78 10.40L23.78 10.40Q23.27 10.54 22.64 10.54L22.64 10.54L22.64 10.54Q21.27 10.54 20.50 9.83L20.50 9.83L20.50 9.83Q19.73 9.11 19.73 7.84L19.73 7.84L19.73 5.14L19.73 5.14Q19.73 4.58 19.87 4.08L19.87 4.08L19.87 4.08Q20.02 3.58 20.36 3.21L20.36 3.21L20.36 3.21Q20.71 2.84 21.27 2.63L21.27 2.63L21.27 2.63Q21.84 2.41 22.67 2.41L22.67 2.41L22.67 2.41Q23.98 2.41 24.70 3.04L24.70 3.04L24.70 3.04Q25.41 3.68 25.41 5.00L25.41 5.00L25.41 5.00Q25.41 5.74 25.09 6.20L25.09 6.20L25.09 6.20Q24.78 6.65 24.28 6.95L24.28 6.95L24.28 6.95Q23.77 7.25 23.14 7.44L23.14 7.44L23.14 7.44Q22.51 7.63 21.90 7.83ZM23.34 5.03L23.34 5.03L23.34 5.03Q23.34 4.76 23.11 4.63L23.11 4.63L23.11 4.63Q22.89 4.49 22.62 4.49L22.62 4.49L22.62 4.49Q22.34 4.49 22.12 4.62L22.12 4.62L22.12 4.62Q21.90 4.75 21.90 4.98L21.90 4.98L21.90 5.77L21.90 5.77Q22.37 5.68 22.66 5.60L22.66 5.60L22.66 5.60Q22.95 5.52 23.10 5.43L23.10 5.43L23.10 5.43Q23.25 5.35 23.30 5.25L23.30 5.25L23.30 5.25Q23.34 5.15 23.34 5.03ZM26.80 2.44L26.68 2.44L26.80 2.44ZM26.68 2.44L26.80 2.44L27.72 3.05L27.72 3.05Q28.06 2.69 28.51 2.55L28.51 2.55L28.51 2.55Q28.97 2.41 29.41 2.41L29.41 2.41L29.41 2.41Q29.83 2.41 30.30 2.54L30.30 2.54L30.30 2.54Q30.77 2.67 31.37 3.09L31.37 3.09L31.95 3.58L30.70 5.29L30.70 5.29Q30.34 4.94 30.06 4.79L30.06 4.79L30.06 4.79Q29.78 4.65 29.56 4.63L29.56 4.63L29.56 4.63Q29.34 4.61 29.19 4.67L29.19 4.67L29.19 4.67Q29.04 4.73 28.92 4.80L28.92 4.80L28.92 10.37L29.05 10.50L26.56 10.50L26.68 10.37L26.68 2.44ZM34.87 0.17L34.87 0.17L41.06 0.17L41.06 2.34L39.12 2.34L39.12 10.37L39.24 10.50L36.74 10.50L36.86 10.37L36.86 2.34L34.87 2.34L34.87 0.17ZM44.06 7.83L44.06 7.83L44.06 7.83Q44.06 8.13 44.29 8.29L44.29 8.29L44.29 8.29Q44.52 8.46 44.79 8.46L44.79 8.46L44.79 8.46Q45.07 8.47 45.30 8.32L45.30 8.32L45.30 8.32Q45.54 8.18 45.56 7.87L45.56 7.87L47.59 7.87L47.59 7.87Q47.59 8.61 47.38 9.11L47.38 9.11L47.38 9.11Q47.18 9.62 46.82 9.94L46.82 9.94L46.82 9.94Q46.45 10.26 45.94 10.40L45.94 10.40L45.94 10.40Q45.43 10.54 44.80 10.54L44.80 10.54L44.80 10.54Q43.43 10.54 42.66 9.83L42.66 9.83L42.66 9.83Q41.89 9.11 41.89 7.84L41.89 7.84L41.89 5.14L41.89 5.14Q41.89 4.58 42.03 4.08L42.03 4.08L42.03 4.08Q42.18 3.58 42.52 3.21L42.52 3.21L42.52 3.21Q42.87 2.84 43.43 2.63L43.43 2.63L43.43 2.63Q44.00 2.41 44.83 2.41L44.83 2.41L44.83 2.41Q46.14 2.41 46.86 3.04L46.86 3.04L46.86 3.04Q47.57 3.68 47.57 5.00L47.57 5.00L47.57 5.00Q47.57 5.74 47.26 6.20L47.26 6.20L47.26 6.20Q46.94 6.65 46.44 6.95L46.44 6.95L46.44 6.95Q45.93 7.25 45.30 7.44L45.30 7.44L45.30 7.44Q44.67 7.63 44.06 7.83ZM45.50 5.03L45.50 5.03L45.50 5.03Q45.50 4.76 45.28 4.63L45.28 4.63L45.28 4.63Q45.05 4.49 44.78 4.49L44.78 4.49L44.78 4.49Q44.51 4.49 44.28 4.62L44.28 4.62L44.28 4.62Q44.06 4.75 44.06 4.98L44.06 4.98L44.06 5.77L44.06 5.77Q44.53 5.68 44.82 5.60L44.82 5.60L44.82 5.60Q45.11 5.52 45.26 5.43L45.26 5.43L45.26 5.43Q45.42 5.35 45.46 5.25L45.46 5.25L45.46 5.25Q45.50 5.15 45.50 5.03ZM51.44 4.58L51.44 4.58L51.44 4.58Q51.25 4.58 51.13 4.70L51.13 4.70L51.13 4.70Q51.00 4.83 51.00 5.03L51.00 5.03L51.00 7.92L51.00 7.92Q51.00 8.11 51.13 8.23L51.13 8.23L51.13 8.23Q51.25 8.36 51.44 8.36L51.44 8.36L53.12 8.36L53.30 8.27L53.30 10.60L53.10 10.50L51.44 10.50L51.44 10.50Q50.86 10.50 50.38 10.37L50.38 10.37L50.38 10.37Q49.90 10.23 49.54 9.93L49.54 9.93L49.54 9.93Q49.18 9.63 48.98 9.14L48.98 9.14L48.98 9.14Q48.78 8.65 48.78 7.94L48.78 7.94L48.78 5.00L48.78 5.00Q48.78 4.44 48.98 3.96L48.98 3.96L48.98 3.96Q49.18 3.49 49.53 3.14L49.53 3.14L49.53 3.14Q49.88 2.80 50.36 2.61L50.36 2.61L50.36 2.61Q50.83 2.42 51.39 2.42L51.39 2.42L52.96 2.42L53.16 2.32L53.16 4.66L52.98 4.58L51.44 4.58ZM58.07 5.01L58.07 5.01L58.07 5.01Q58.07 4.83 57.95 4.70L57.95 4.70L57.95 4.70Q57.82 4.58 57.64 4.58L57.64 4.58L56.81 4.58L56.81 10.36L56.94 10.50L54.42 10.50L54.57 10.36L54.57 0.36L54.45 0.20L56.95 0.20L56.83 0.38L56.83 2.42L57.67 2.42L57.67 2.42Q58.35 2.42 58.85 2.61L58.85 2.61L58.85 2.61Q59.35 2.80 59.67 3.15L59.67 3.15L59.67 3.15Q59.99 3.50 60.14 4.00L60.14 4.00L60.14 4.00Q60.30 4.51 60.30 5.11L60.30 5.11L60.30 10.36L60.45 10.50L57.93 10.50L58.07 10.37L58.07 5.01Z"></path></g><!----><g data-v-423bf9ae="" id="0356d6ea-c4e2-4a01-89b9-06372735d9e1" transform="matrix(2.8125,0,0,2.8125,0,0)" stroke="none" fill="white"><path d="M9.571 20.464l8.064 4.47 8.065-4.47v-8.939l-8.065-4.469-8.064 4.469z"></path><path d="M32 0H0v32h32l-5.054-5.172H5.054V5.172h21.892z"></path></g><!----><g data-v-423bf9ae="" id="8099293a-010d-4e51-bf14-41975b2ac860" fill="white" transform="matrix(0.4446941467876927,0,0,0.4446941467876927,109.68871312597864,58.314609848153154)"><path d="M7.81 9.52C7.39 9.11 6.79 8.86 6.01 8.75C6.33 8.67 6.61 8.55 6.86 8.40C7.11 8.25 7.34 8.08 7.50 7.87C7.67 7.66 7.81 7.43 7.90 7.20C7.98 6.96 8.04 6.71 8.04 6.44C8.04 6.05 7.95 5.68 7.83 5.38C7.70 5.07 7.49 4.80 7.22 4.58C6.96 4.37 6.62 4.20 6.20 4.09C5.78 3.98 5.29 3.92 4.73 3.92L1.89 3.92L0.70 3.92L0.70 4.19C0.70 4.34 0.80 4.42 0.98 4.44L1.12 4.44C1.19 4.44 1.29 4.45 1.43 4.45C1.57 4.45 1.72 4.47 1.89 4.47L1.89 13.26C1.72 13.26 1.57 13.27 1.43 13.27C1.29 13.27 1.19 13.29 1.12 13.29L0.98 13.29C0.80 13.30 0.71 13.38 0.71 13.54L0.71 13.82L1.89 13.82L5.10 13.82C5.63 13.82 6.09 13.76 6.51 13.64C6.93 13.51 7.28 13.34 7.56 13.10C7.84 12.87 8.06 12.59 8.22 12.25C8.37 11.91 8.44 11.54 8.44 11.12C8.44 10.46 8.23 9.93 7.81 9.52ZM2.60 4.48L4.73 4.48C5.61 4.48 6.27 4.66 6.69 5.00C7.11 5.35 7.32 5.84 7.32 6.51C7.32 6.76 7.28 7.03 7.18 7.27C7.08 7.50 6.93 7.71 6.72 7.91C6.51 8.11 6.24 8.26 5.92 8.37C5.60 8.48 5.21 8.55 4.75 8.55L2.60 8.55ZM7.06 12.68C6.61 13.06 5.95 13.24 5.08 13.24L2.60 13.24L2.60 9.07L5.10 9.07C5.52 9.07 5.88 9.11 6.20 9.21C6.52 9.31 6.80 9.45 7.03 9.62C7.25 9.80 7.42 10.00 7.55 10.25C7.66 10.50 7.73 10.79 7.73 11.10C7.73 11.79 7.50 12.31 7.06 12.68ZM24.95 3.92L24.23 3.92L22.88 3.92L22.88 4.19C22.88 4.34 22.97 4.42 23.16 4.44L23.32 4.44C23.42 4.44 23.56 4.45 23.73 4.45C23.90 4.45 24.07 4.47 24.23 4.47L24.23 10.04C24.23 10.50 24.16 10.92 24.02 11.33C23.88 11.73 23.69 12.08 23.42 12.38C23.16 12.67 22.85 12.89 22.47 13.06C22.09 13.23 21.67 13.31 21.20 13.31C20.72 13.31 20.29 13.23 19.91 13.06C19.53 12.89 19.21 12.66 18.96 12.36C18.69 12.07 18.51 11.72 18.37 11.33C18.23 10.93 18.16 10.50 18.16 10.04L18.16 4.47C18.33 4.47 18.49 4.45 18.66 4.45C18.83 4.45 18.97 4.44 19.07 4.44L19.24 4.44C19.42 4.42 19.52 4.34 19.52 4.19L19.52 3.92L18.16 3.92L17.44 3.92L16.27 3.92L16.27 4.19C16.27 4.34 16.35 4.42 16.53 4.44L16.67 4.44C16.74 4.44 16.84 4.45 16.98 4.45C17.12 4.45 17.28 4.47 17.44 4.47L17.44 10.04C17.44 10.58 17.53 11.09 17.70 11.56C17.86 12.04 18.12 12.46 18.44 12.81C18.76 13.16 19.17 13.44 19.63 13.64C20.09 13.83 20.62 13.93 21.20 13.93C21.77 13.93 22.29 13.83 22.75 13.64C23.21 13.44 23.62 13.16 23.94 12.81C24.26 12.46 24.51 12.04 24.68 11.56C24.85 11.09 24.95 10.58 24.95 10.04L24.95 4.47C25.12 4.47 25.26 4.45 25.40 4.45C25.54 4.45 25.65 4.44 25.72 4.44L25.84 4.44C26.03 4.42 26.12 4.34 26.12 4.19L26.12 3.92ZM36.96 4.44C37.14 4.42 37.23 4.34 37.23 4.19L37.23 3.91L36.05 3.91L35.34 3.91L34.15 3.91L34.15 4.19C34.15 4.34 34.24 4.42 34.43 4.44L34.57 4.44C34.64 4.44 34.73 4.45 34.87 4.45C35.01 4.45 35.17 4.47 35.34 4.47L35.34 13.26C35.17 13.26 35.01 13.27 34.87 13.27C34.73 13.27 34.64 13.29 34.57 13.29L34.43 13.29C34.24 13.30 34.15 13.38 34.15 13.54L34.15 13.82L35.34 13.82L36.05 13.82L37.23 13.82L37.23 13.54C37.23 13.38 37.14 13.30 36.96 13.29L36.82 13.29C36.75 13.29 36.65 13.27 36.51 13.27C36.37 13.27 36.22 13.26 36.05 13.26L36.05 4.47C36.22 4.47 36.37 4.45 36.51 4.45C36.65 4.45 36.75 4.44 36.82 4.44ZM51.94 11.97C51.74 11.97 51.66 12.08 51.65 12.31C51.65 12.32 51.65 12.38 51.63 12.43C51.62 12.49 51.62 12.59 51.60 12.71C51.59 12.84 51.58 13.01 51.56 13.20L47.47 13.20L47.47 4.47C47.64 4.47 47.78 4.45 47.92 4.45C48.06 4.45 48.17 4.44 48.24 4.44L48.37 4.44C48.55 4.42 48.65 4.34 48.65 4.19L48.65 3.92L47.47 3.92L46.76 3.92L45.57 3.92L45.57 4.19C45.57 4.34 45.67 4.42 45.85 4.44L45.99 4.44C46.06 4.44 46.16 4.45 46.30 4.45C46.44 4.45 46.59 4.47 46.76 4.47L46.76 13.26C46.59 13.26 46.44 13.27 46.30 13.27C46.16 13.27 46.06 13.29 45.99 13.29L45.85 13.29C45.67 13.30 45.57 13.38 45.57 13.54L45.57 13.82L46.76 13.82L52.04 13.82L52.16 13.82L52.29 13.82L52.29 13.55L52.29 12.99L52.29 11.97L52.01 11.97ZM69.72 6.80C69.50 6.19 69.17 5.68 68.75 5.25C68.33 4.82 67.84 4.48 67.27 4.26C66.70 4.03 66.04 3.92 65.34 3.92L61.91 3.92L60.72 3.92L60.72 4.19C60.72 4.34 60.82 4.42 61.00 4.44L61.14 4.44C61.21 4.44 61.31 4.45 61.45 4.45C61.59 4.45 61.74 4.47 61.91 4.47L61.91 13.26C61.74 13.26 61.59 13.27 61.45 13.27C61.31 13.27 61.21 13.29 61.14 13.29L61.00 13.29C60.82 13.30 60.72 13.38 60.72 13.54L60.72 13.82L61.91 13.82L65.34 13.82C66.04 13.82 66.70 13.71 67.27 13.48C67.84 13.26 68.33 12.92 68.75 12.49C69.17 12.05 69.50 11.54 69.72 10.92C69.94 10.30 70.07 9.63 70.07 8.86C70.07 8.11 69.94 7.42 69.72 6.80ZM69.03 10.72C68.84 11.27 68.59 11.72 68.24 12.10C67.89 12.47 67.47 12.75 66.98 12.95C66.49 13.15 65.94 13.24 65.34 13.24L62.62 13.24L62.62 4.49L65.34 4.49C65.94 4.49 66.49 4.59 66.98 4.79C67.47 4.98 67.89 5.26 68.24 5.64C68.59 6.02 68.84 6.47 69.03 7.01C69.23 7.56 69.33 8.18 69.33 8.86C69.33 9.56 69.23 10.18 69.03 10.72ZM81.17 4.44C81.35 4.42 81.44 4.34 81.44 4.19L81.44 3.91L80.26 3.91L79.55 3.91L78.36 3.91L78.36 4.19C78.36 4.34 78.46 4.42 78.64 4.44L78.78 4.44C78.85 4.44 78.95 4.45 79.09 4.45C79.23 4.45 79.38 4.47 79.55 4.47L79.55 13.26C79.38 13.26 79.23 13.27 79.09 13.27C78.95 13.27 78.85 13.29 78.78 13.29L78.64 13.29C78.46 13.30 78.36 13.38 78.36 13.54L78.36 13.82L79.55 13.82L80.26 13.82L81.44 13.82L81.44 13.54C81.44 13.38 81.35 13.30 81.17 13.29L81.03 13.29C80.96 13.29 80.86 13.27 80.72 13.27C80.58 13.27 80.43 13.26 80.26 13.26L80.26 4.47C80.43 4.47 80.58 4.45 80.72 4.45C80.86 4.45 80.96 4.44 81.03 4.44ZM98.62 3.92L97.99 3.92L96.77 3.92L96.77 4.19C96.77 4.34 96.87 4.42 97.05 4.44L97.19 4.44C97.26 4.44 97.37 4.45 97.51 4.45C97.65 4.45 97.82 4.47 97.99 4.47L97.99 12.22C97.99 12.35 97.99 12.49 98.00 12.63L91.59 4.05C91.55 3.99 91.52 3.95 91.48 3.93C91.43 3.92 91.39 3.91 91.32 3.91L90.97 3.91L89.78 3.91L89.78 4.19C89.78 4.34 89.88 4.42 90.06 4.44L90.20 4.44C90.27 4.44 90.37 4.45 90.51 4.45C90.65 4.45 90.80 4.47 90.97 4.47L90.97 13.26C90.80 13.26 90.65 13.27 90.51 13.27C90.37 13.27 90.27 13.29 90.20 13.29L90.06 13.29C89.88 13.30 89.78 13.38 89.78 13.54L89.78 13.82L90.97 13.82L91.59 13.82L92.81 13.82L92.81 13.54C92.81 13.38 92.71 13.30 92.53 13.29L92.39 13.29C92.32 13.29 92.19 13.27 92.05 13.27C91.91 13.27 91.76 13.26 91.59 13.26L91.59 5.49C91.59 5.36 91.59 5.22 91.57 5.08L98.01 13.68C98.08 13.78 98.15 13.82 98.27 13.82L98.62 13.82L98.62 4.47C98.78 4.47 98.92 4.45 99.06 4.45C99.20 4.45 99.32 4.44 99.39 4.44L99.51 4.44C99.69 4.42 99.79 4.34 99.79 4.19L99.79 3.92ZM113.47 9.32L113.47 9.72C113.47 9.76 113.50 9.80 113.53 9.83C113.55 9.86 113.60 9.87 113.65 9.87L115.56 9.87L115.56 12.54C115.33 12.67 115.11 12.78 114.90 12.88C114.69 12.98 114.45 13.08 114.21 13.15C113.97 13.22 113.71 13.27 113.43 13.30C113.15 13.33 112.84 13.34 112.50 13.34C111.89 13.34 111.33 13.24 110.82 13.03C110.32 12.82 109.89 12.53 109.52 12.15C109.16 11.77 108.88 11.30 108.68 10.74C108.49 10.18 108.37 9.56 108.37 8.86C108.37 8.18 108.49 7.56 108.68 7.01C108.88 6.47 109.16 5.99 109.52 5.61C109.89 5.24 110.33 4.94 110.85 4.73C111.37 4.52 111.94 4.42 112.59 4.42C113.76 4.42 114.70 4.58 115.39 4.90C115.43 5.81 115.46 6.31 115.46 6.41C115.47 6.64 115.57 6.75 115.77 6.75L116.10 6.75L116.10 4.51C115.67 4.31 115.11 4.14 114.41 4.00C113.71 3.86 113.12 3.81 112.62 3.81C111.86 3.81 111.17 3.92 110.56 4.16C109.94 4.40 109.42 4.75 108.99 5.18C108.56 5.61 108.23 6.15 108.00 6.78C107.76 7.39 107.65 8.09 107.65 8.86C107.65 9.63 107.76 10.32 108.00 10.95C108.23 11.58 108.56 12.10 108.98 12.54C109.40 12.99 109.91 13.33 110.50 13.57C111.09 13.80 111.73 13.93 112.45 13.93C112.87 13.93 113.25 13.90 113.60 13.86C113.95 13.80 114.27 13.73 114.58 13.65C114.88 13.55 115.16 13.44 115.43 13.30C115.70 13.16 115.95 13.01 116.20 12.84L116.20 9.32ZM143.11 3.92L143.04 3.92L142.48 3.92L142.37 3.92L140.97 3.92L140.97 4.19C140.97 4.34 141.06 4.42 141.25 4.44L141.36 4.44C141.41 4.44 141.48 4.45 141.60 4.45C141.71 4.45 141.83 4.47 141.97 4.47L139.38 8.64C139.31 8.75 139.26 8.85 139.22 8.95C139.17 9.04 139.13 9.16 139.09 9.25C139.05 9.16 139.01 9.04 138.96 8.95C138.92 8.85 138.87 8.75 138.80 8.64L136.19 4.47C136.33 4.47 136.46 4.45 136.57 4.45C136.68 4.45 136.77 4.44 136.82 4.44L136.92 4.44C137.10 4.42 137.20 4.34 137.20 4.19L137.20 3.92L135.80 3.92L135.69 3.92L135.13 3.92L135.06 3.92L134.61 3.92L134.61 4.19C134.61 4.34 134.71 4.42 134.89 4.44C135.13 4.45 135.31 4.47 135.41 4.47L138.73 9.73L138.73 13.26C138.56 13.26 138.40 13.27 138.26 13.27C138.12 13.27 138.03 13.29 137.96 13.29L137.83 13.29C137.65 13.30 137.55 13.38 137.55 13.54L137.55 13.82L138.73 13.82L139.44 13.82L140.62 13.82L140.62 13.54C140.62 13.38 140.53 13.30 140.35 13.29L140.21 13.29C140.14 13.29 140.04 13.27 139.90 13.27C139.76 13.27 139.61 13.26 139.44 13.26L139.44 9.73L142.76 4.47C142.87 4.47 143.04 4.45 143.28 4.44C143.46 4.42 143.56 4.34 143.56 4.19L143.56 3.92ZM160.30 8.86C160.30 8.11 160.17 7.41 159.95 6.79C159.73 6.17 159.40 5.64 158.98 5.19C158.56 4.75 158.07 4.40 157.50 4.16C156.93 3.92 156.27 3.79 155.57 3.79C154.87 3.79 154.24 3.92 153.66 4.16C153.09 4.40 152.59 4.75 152.17 5.19C151.75 5.64 151.42 6.17 151.20 6.79C150.98 7.41 150.85 8.11 150.85 8.86C150.85 9.63 150.98 10.33 151.20 10.95C151.42 11.56 151.75 12.10 152.17 12.54C152.59 12.99 153.09 13.33 153.66 13.57C154.24 13.80 154.87 13.93 155.57 13.93C156.27 13.93 156.93 13.80 157.50 13.57C158.07 13.33 158.56 12.99 158.98 12.54C159.40 12.10 159.73 11.56 159.95 10.95C160.17 10.33 160.30 9.63 160.30 8.86ZM159.54 8.86C159.54 9.56 159.46 10.18 159.26 10.72C159.07 11.27 158.80 11.75 158.45 12.12C158.10 12.50 157.68 12.81 157.19 13.01C156.70 13.20 156.17 13.30 155.57 13.30C154.98 13.30 154.45 13.20 153.96 13.01C153.47 12.81 153.05 12.50 152.70 12.12C152.35 11.75 152.07 11.27 151.87 10.72C151.68 10.18 151.59 9.56 151.59 8.86C151.59 8.18 151.68 7.55 151.87 7.00C152.07 6.45 152.35 5.98 152.70 5.60C153.05 5.22 153.47 4.91 153.96 4.72C154.45 4.52 154.98 4.41 155.57 4.41C156.17 4.41 156.70 4.52 157.19 4.72C157.68 4.91 158.10 5.22 158.45 5.60C158.80 5.98 159.07 6.45 159.26 7.00C159.46 7.55 159.54 8.18 159.54 8.86ZM176.54 3.92L175.83 3.92L174.47 3.92L174.47 4.19C174.47 4.34 174.57 4.42 174.75 4.44L174.92 4.44C175.01 4.44 175.15 4.45 175.32 4.45C175.49 4.45 175.66 4.47 175.83 4.47L175.83 10.04C175.83 10.50 175.76 10.92 175.62 11.33C175.48 11.73 175.28 12.08 175.01 12.38C174.75 12.67 174.44 12.89 174.06 13.06C173.68 13.23 173.26 13.31 172.79 13.31C172.31 13.31 171.88 13.23 171.50 13.06C171.12 12.89 170.80 12.66 170.55 12.36C170.28 12.07 170.10 11.72 169.96 11.33C169.82 10.93 169.75 10.50 169.75 10.04L169.75 4.47C169.92 4.47 170.09 4.45 170.25 4.45C170.42 4.45 170.56 4.44 170.66 4.44L170.83 4.44C171.01 4.42 171.11 4.34 171.11 4.19L171.11 3.92L169.75 3.92L169.04 3.92L167.86 3.92L167.86 4.19C167.86 4.34 167.94 4.42 168.13 4.44L168.27 4.44C168.34 4.44 168.43 4.45 168.57 4.45C168.71 4.45 168.87 4.47 169.04 4.47L169.04 10.04C169.04 10.58 169.12 11.09 169.29 11.56C169.46 12.04 169.71 12.46 170.03 12.81C170.35 13.16 170.76 13.44 171.22 13.64C171.68 13.83 172.21 13.93 172.79 13.93C173.36 13.93 173.88 13.83 174.34 13.64C174.80 13.44 175.21 13.16 175.53 12.81C175.85 12.46 176.11 12.04 176.27 11.56C176.44 11.09 176.54 10.58 176.54 10.04L176.54 4.47C176.71 4.47 176.85 4.45 176.99 4.45C177.13 4.45 177.24 4.44 177.31 4.44L177.44 4.44C177.62 4.42 177.72 4.34 177.72 4.19L177.72 3.92ZM193.73 13.29L193.63 13.29L193.45 13.29C193.37 13.29 193.28 13.27 193.20 13.27L190.23 9.53C190.15 9.42 190.04 9.32 189.92 9.25C190.36 9.21 190.75 9.11 191.10 8.96C191.45 8.81 191.73 8.61 191.98 8.37C192.22 8.13 192.42 7.85 192.54 7.55C192.67 7.24 192.74 6.89 192.74 6.51C192.74 5.66 192.46 5.03 191.90 4.58C191.34 4.14 190.48 3.92 189.34 3.92L186.93 3.92L185.75 3.92L185.75 4.19C185.75 4.34 185.84 4.42 186.02 4.44L186.16 4.44C186.23 4.44 186.33 4.45 186.47 4.45C186.61 4.45 186.76 4.47 186.93 4.47L186.93 13.26C186.76 13.26 186.61 13.27 186.47 13.27C186.33 13.27 186.23 13.29 186.16 13.29L186.02 13.29C185.84 13.30 185.74 13.38 185.74 13.54L185.74 13.82L186.93 13.82L187.64 13.82L188.82 13.82L188.82 13.54C188.82 13.38 188.72 13.30 188.54 13.29L188.40 13.29C188.33 13.29 188.23 13.27 188.09 13.27C187.95 13.27 187.81 13.26 187.64 13.26L187.64 9.34L188.82 9.34C189.01 9.34 189.15 9.35 189.24 9.39C189.32 9.44 189.41 9.52 189.49 9.62L192.67 13.64C192.72 13.71 192.77 13.75 192.82 13.78C192.88 13.80 192.95 13.82 193.02 13.82L193.09 13.82L193.63 13.82L194.00 13.82L194.00 13.54C194.00 13.38 193.91 13.30 193.73 13.29ZM189.24 8.81L187.64 8.81L187.64 4.48L189.34 4.48C190.22 4.48 190.89 4.66 191.35 5.00C191.81 5.33 192.04 5.87 192.04 6.57C192.04 6.92 191.98 7.21 191.86 7.49C191.73 7.77 191.53 7.99 191.30 8.19C191.06 8.39 190.76 8.55 190.41 8.65C190.06 8.75 189.67 8.81 189.24 8.81ZM221.84 8.86C221.84 8.11 221.72 7.41 221.49 6.79C221.27 6.17 220.95 5.64 220.53 5.19C220.11 4.75 219.62 4.40 219.04 4.16C218.47 3.92 217.81 3.79 217.11 3.79C216.41 3.79 215.78 3.92 215.21 4.16C214.63 4.40 214.13 4.75 213.71 5.19C213.29 5.64 212.97 6.17 212.74 6.79C212.52 7.41 212.39 8.11 212.39 8.86C212.39 9.63 212.52 10.33 212.74 10.95C212.97 11.56 213.29 12.10 213.71 12.54C214.13 12.99 214.63 13.33 215.21 13.57C215.78 13.80 216.41 13.93 217.11 13.93C217.81 13.93 218.47 13.80 219.04 13.57C219.62 13.33 220.11 12.99 220.53 12.54C220.95 12.10 221.27 11.56 221.49 10.95C221.72 10.33 221.84 9.63 221.84 8.86ZM221.09 8.86C221.09 9.56 221.00 10.18 220.81 10.72C220.61 11.27 220.35 11.75 220.00 12.12C219.65 12.50 219.23 12.81 218.74 13.01C218.25 13.20 217.71 13.30 217.11 13.30C216.52 13.30 215.99 13.20 215.50 13.01C215.01 12.81 214.59 12.50 214.24 12.12C213.89 11.75 213.61 11.27 213.42 10.72C213.22 10.18 213.14 9.56 213.14 8.86C213.14 8.18 213.22 7.55 213.42 7.00C213.61 6.45 213.89 5.98 214.24 5.60C214.59 5.22 215.01 4.91 215.50 4.72C215.99 4.52 216.52 4.41 217.11 4.41C217.71 4.41 218.25 4.52 218.74 4.72C219.23 4.91 219.65 5.22 220.00 5.60C220.35 5.98 220.61 6.45 220.81 7.00C221.00 7.55 221.09 8.18 221.09 8.86ZM238.67 3.92L238.04 3.92L236.82 3.92L236.82 4.19C236.82 4.34 236.92 4.42 237.10 4.44L237.24 4.44C237.31 4.44 237.43 4.45 237.57 4.45C237.71 4.45 237.87 4.47 238.04 4.47L238.04 12.22C238.04 12.35 238.04 12.49 238.06 12.63L231.64 4.05C231.60 3.99 231.57 3.95 231.53 3.93C231.49 3.92 231.45 3.91 231.38 3.91L231.03 3.91L229.84 3.91L229.84 4.19C229.84 4.34 229.94 4.42 230.12 4.44L230.26 4.44C230.33 4.44 230.43 4.45 230.57 4.45C230.71 4.45 230.86 4.47 231.03 4.47L231.03 13.26C230.86 13.26 230.71 13.27 230.57 13.27C230.43 13.27 230.33 13.29 230.26 13.29L230.12 13.29C229.94 13.30 229.84 13.38 229.84 13.54L229.84 13.82L231.03 13.82L231.64 13.82L232.86 13.82L232.86 13.54C232.86 13.38 232.76 13.30 232.58 13.29L232.44 13.29C232.37 13.29 232.25 13.27 232.11 13.27C231.97 13.27 231.81 13.26 231.64 13.26L231.64 5.49C231.64 5.36 231.64 5.22 231.63 5.08L238.07 13.68C238.14 13.78 238.21 13.82 238.32 13.82L238.67 13.82L238.67 4.47C238.84 4.47 238.98 4.45 239.12 4.45C239.26 4.45 239.37 4.44 239.44 4.44L239.57 4.44C239.75 4.42 239.85 4.34 239.85 4.19L239.85 3.92ZM254.25 11.97C254.06 11.97 253.97 12.08 253.96 12.31C253.96 12.32 253.96 12.38 253.95 12.43C253.93 12.49 253.93 12.59 253.92 12.71C253.90 12.84 253.89 13.01 253.88 13.20L249.79 13.20L249.79 4.47C249.96 4.47 250.10 4.45 250.24 4.45C250.38 4.45 250.49 4.44 250.56 4.44L250.68 4.44C250.87 4.42 250.96 4.34 250.96 4.19L250.96 3.92L249.79 3.92L249.07 3.92L247.88 3.92L247.88 4.19C247.88 4.34 247.98 4.42 248.16 4.44L248.30 4.44C248.37 4.44 248.47 4.45 248.61 4.45C248.75 4.45 248.91 4.47 249.07 4.47L249.07 13.26C248.91 13.26 248.75 13.27 248.61 13.27C248.47 13.27 248.37 13.29 248.30 13.29L248.16 13.29C247.98 13.30 247.88 13.38 247.88 13.54L247.88 13.82L249.07 13.82L254.35 13.82L254.48 13.82L254.60 13.82L254.60 13.55L254.60 12.99L254.60 11.97L254.32 11.97ZM265.85 4.44C266.03 4.42 266.11 4.34 266.11 4.19L266.11 3.91L264.94 3.91L264.22 3.91L263.03 3.91L263.03 4.19C263.03 4.34 263.13 4.42 263.31 4.44L263.45 4.44C263.52 4.44 263.62 4.45 263.76 4.45C263.90 4.45 264.05 4.47 264.22 4.47L264.22 13.26C264.05 13.26 263.90 13.27 263.76 13.27C263.62 13.27 263.52 13.29 263.45 13.29L263.31 13.29C263.13 13.30 263.03 13.38 263.03 13.54L263.03 13.82L264.22 13.82L264.94 13.82L266.11 13.82L266.11 13.54C266.11 13.38 266.03 13.30 265.85 13.29L265.71 13.29C265.64 13.29 265.54 13.27 265.40 13.27C265.26 13.27 265.10 13.26 264.94 13.26L264.94 4.47C265.10 4.47 265.26 4.45 265.40 4.45C265.54 4.45 265.64 4.44 265.71 4.44ZM283.29 3.92L282.66 3.92L281.44 3.92L281.44 4.19C281.44 4.34 281.54 4.42 281.72 4.44L281.86 4.44C281.93 4.44 282.04 4.45 282.18 4.45C282.32 4.45 282.49 4.47 282.66 4.47L282.66 12.22C282.66 12.35 282.66 12.49 282.67 12.63L276.26 4.05C276.22 3.99 276.19 3.95 276.15 3.93C276.11 3.92 276.07 3.91 276.00 3.91L275.65 3.91L274.46 3.91L274.46 4.19C274.46 4.34 274.55 4.42 274.74 4.44L274.88 4.44C274.95 4.44 275.04 4.45 275.18 4.45C275.32 4.45 275.48 4.47 275.65 4.47L275.65 13.26C275.48 13.26 275.32 13.27 275.18 13.27C275.04 13.27 274.95 13.29 274.88 13.29L274.74 13.29C274.55 13.30 274.46 13.38 274.46 13.54L274.46 13.82L275.65 13.82L276.26 13.82L277.48 13.82L277.48 13.54C277.48 13.38 277.38 13.30 277.20 13.29L277.06 13.29C276.99 13.29 276.86 13.27 276.72 13.27C276.58 13.27 276.43 13.26 276.26 13.26L276.26 5.49C276.26 5.36 276.26 5.22 276.25 5.08L282.69 13.68C282.76 13.78 282.83 13.82 282.94 13.82L283.29 13.82L283.29 4.47C283.46 4.47 283.60 4.45 283.74 4.45C283.88 4.45 283.99 4.44 284.06 4.44L284.19 4.44C284.37 4.42 284.47 4.34 284.47 4.19L284.47 3.92ZM293.69 3.92L292.50 3.92L292.50 4.19C292.50 4.34 292.60 4.42 292.78 4.44L292.92 4.44C292.99 4.44 293.09 4.45 293.23 4.45C293.37 4.45 293.52 4.47 293.69 4.47L293.69 13.26C293.52 13.26 293.37 13.27 293.23 13.27C293.09 13.27 292.99 13.29 292.92 13.29L292.78 13.29C292.60 13.30 292.52 13.38 292.52 13.54L292.52 13.82L293.69 13.82L299.63 13.82L299.63 13.22L299.63 11.76L299.28 11.76C299.08 11.76 299.00 11.89 298.98 12.11C298.98 12.14 298.97 12.19 298.97 12.29C298.97 12.39 298.97 12.53 298.96 12.74C298.94 12.95 298.93 13.09 298.93 13.22L294.41 13.22L294.41 9.09L298.35 9.09L298.35 8.51L294.41 8.51L294.41 4.51L298.93 4.51C298.96 5.12 298.98 5.50 298.98 5.63C299.00 5.85 299.08 5.96 299.28 5.96L299.63 5.96L299.63 4.51L299.63 3.92ZM327.59 6.80C327.36 6.19 327.04 5.68 326.62 5.25C326.20 4.82 325.71 4.48 325.14 4.26C324.56 4.03 323.90 3.92 323.20 3.92L319.77 3.92L318.58 3.92L318.58 4.19C318.58 4.34 318.68 4.42 318.86 4.44L319.00 4.44C319.07 4.44 319.17 4.45 319.31 4.45C319.45 4.45 319.61 4.47 319.77 4.47L319.77 13.26C319.61 13.26 319.45 13.27 319.31 13.27C319.17 13.27 319.07 13.29 319.00 13.29L318.86 13.29C318.68 13.30 318.58 13.38 318.58 13.54L318.58 13.82L319.77 13.82L323.20 13.82C323.90 13.82 324.56 13.71 325.14 13.48C325.71 13.26 326.20 12.92 326.62 12.49C327.04 12.05 327.36 11.54 327.59 10.92C327.81 10.30 327.94 9.63 327.94 8.86C327.94 8.11 327.81 7.42 327.59 6.80ZM326.90 10.72C326.70 11.27 326.45 11.72 326.10 12.10C325.75 12.47 325.33 12.75 324.84 12.95C324.35 13.15 323.81 13.24 323.20 13.24L320.49 13.24L320.49 4.49L323.20 4.49C323.81 4.49 324.35 4.59 324.84 4.79C325.33 4.98 325.75 5.26 326.10 5.64C326.45 6.02 326.70 6.47 326.90 7.01C327.10 7.56 327.19 8.18 327.19 8.86C327.19 9.56 327.10 10.18 326.90 10.72ZM344.22 13.29L344.12 13.29L343.94 13.29C343.85 13.29 343.77 13.27 343.69 13.27L340.72 9.53C340.63 9.42 340.52 9.32 340.41 9.25C340.84 9.21 341.24 9.11 341.59 8.96C341.94 8.81 342.22 8.61 342.47 8.37C342.71 8.13 342.90 7.85 343.03 7.55C343.15 7.24 343.22 6.89 343.22 6.51C343.22 5.66 342.94 5.03 342.38 4.58C341.82 4.14 340.97 3.92 339.82 3.92L337.41 3.92L336.24 3.92L336.24 4.19C336.24 4.34 336.32 4.42 336.50 4.44L336.64 4.44C336.71 4.44 336.81 4.45 336.95 4.45C337.09 4.45 337.25 4.47 337.41 4.47L337.41 13.26C337.25 13.26 337.09 13.27 336.95 13.27C336.81 13.27 336.71 13.29 336.64 13.29L336.50 13.29C336.32 13.30 336.22 13.38 336.22 13.54L336.22 13.82L337.41 13.82L338.13 13.82L339.30 13.82L339.30 13.54C339.30 13.38 339.21 13.30 339.02 13.29L338.88 13.29C338.81 13.29 338.72 13.27 338.58 13.27C338.44 13.27 338.30 13.26 338.13 13.26L338.13 9.34L339.30 9.34C339.50 9.34 339.64 9.35 339.72 9.39C339.81 9.44 339.89 9.52 339.98 9.62L343.15 13.64C343.21 13.71 343.25 13.75 343.31 13.78C343.36 13.80 343.43 13.82 343.50 13.82L343.57 13.82L344.12 13.82L344.48 13.82L344.48 13.54C344.48 13.38 344.40 13.30 344.22 13.29ZM339.72 8.81L338.13 8.81L338.13 4.48L339.82 4.48C340.70 4.48 341.38 4.66 341.84 5.00C342.30 5.33 342.52 5.87 342.52 6.57C342.52 6.92 342.47 7.21 342.34 7.49C342.22 7.77 342.02 7.99 341.78 8.19C341.54 8.39 341.25 8.55 340.90 8.65C340.55 8.75 340.16 8.81 339.72 8.81ZM353.88 3.92L352.69 3.92L352.69 4.19C352.69 4.34 352.79 4.42 352.97 4.44L353.11 4.44C353.18 4.44 353.28 4.45 353.42 4.45C353.56 4.45 353.71 4.47 353.88 4.47L353.88 13.26C353.71 13.26 353.56 13.27 353.42 13.27C353.28 13.27 353.18 13.29 353.11 13.29L352.97 13.29C352.79 13.30 352.70 13.38 352.70 13.54L352.70 13.82L353.88 13.82L359.81 13.82L359.81 13.22L359.81 11.76L359.46 11.76C359.27 11.76 359.18 11.89 359.17 12.11C359.17 12.14 359.16 12.19 359.16 12.29C359.16 12.39 359.16 12.53 359.14 12.74C359.13 12.95 359.11 13.09 359.11 13.22L354.59 13.22L354.59 9.09L358.54 9.09L358.54 8.51L354.59 8.51L354.59 4.51L359.11 4.51C359.14 5.12 359.17 5.50 359.17 5.63C359.18 5.85 359.27 5.96 359.46 5.96L359.81 5.96L359.81 4.51L359.81 3.92ZM377.69 13.22L377.23 13.17L373.45 3.91L372.74 3.91L368.94 13.17L368.49 13.22C368.31 13.23 368.23 13.33 368.23 13.50L368.23 13.82L368.68 13.82L368.97 13.82L369.22 13.82L369.32 13.82L370.64 13.82L370.64 13.50C370.64 13.31 370.52 13.23 370.31 13.22C370.30 13.22 370.27 13.20 370.23 13.20C370.19 13.20 370.13 13.19 370.03 13.19C369.94 13.19 369.81 13.19 369.67 13.17L370.65 10.75L370.72 10.57L375.45 10.57L375.52 10.75L376.50 13.17C376.36 13.19 376.25 13.19 376.15 13.19C376.05 13.19 375.98 13.20 375.94 13.20C375.90 13.20 375.87 13.22 375.86 13.22C375.65 13.23 375.54 13.31 375.54 13.50L375.54 13.82L376.85 13.82L376.95 13.82L377.22 13.82L377.50 13.82L377.96 13.82L377.96 13.50C377.96 13.33 377.87 13.23 377.69 13.22ZM372.89 5.22C372.92 5.14 372.96 5.04 372.99 4.94C373.02 4.84 373.06 4.75 373.09 4.63C373.11 4.75 373.16 4.84 373.18 4.94C373.21 5.04 373.25 5.12 373.28 5.21L375.24 10.04L370.94 10.04ZM398.06 4.44C398.24 4.42 398.34 4.34 398.34 4.19L398.34 3.92L397.17 3.92L396.66 3.92C396.59 3.92 396.55 3.92 396.51 3.93C396.47 3.95 396.44 3.99 396.40 4.05L392.50 10.92C392.46 10.99 392.43 11.06 392.41 11.13C392.38 11.20 392.35 11.28 392.32 11.35C392.27 11.20 392.21 11.06 392.14 10.93L388.14 4.05C388.09 3.99 388.07 3.95 388.02 3.93C387.98 3.92 387.94 3.92 387.87 3.92L387.38 3.92L386.19 3.92L386.19 4.19C386.19 4.34 386.29 4.42 386.47 4.44L386.61 4.44C386.68 4.44 386.78 4.45 386.92 4.45C387.06 4.45 387.21 4.47 387.38 4.47L387.38 13.26C387.21 13.26 387.06 13.27 386.92 13.27C386.78 13.27 386.68 13.29 386.61 13.29L386.47 13.29C386.29 13.30 386.19 13.38 386.19 13.54L386.19 13.82L387.38 13.82L388.00 13.82L389.21 13.82L389.21 13.54C389.21 13.38 389.12 13.30 388.93 13.29L388.79 13.29C388.72 13.29 388.61 13.27 388.47 13.27C388.33 13.27 388.16 13.26 388.00 13.26L388.00 5.38C388.00 5.25 388.00 5.12 387.98 4.98L391.99 11.91C392.06 12.04 392.15 12.10 392.27 12.10L392.38 12.10C392.50 12.10 392.59 12.04 392.66 11.91L396.55 4.98C396.54 5.12 396.54 5.25 396.54 5.38L396.54 13.26C396.37 13.26 396.20 13.27 396.06 13.27C395.92 13.27 395.81 13.29 395.74 13.29L395.60 13.29C395.42 13.30 395.32 13.38 395.32 13.54L395.32 13.82L396.54 13.82L397.17 13.82L398.34 13.82L398.34 13.54C398.34 13.38 398.24 13.30 398.06 13.29L397.94 13.29C397.87 13.29 397.75 13.27 397.61 13.27C397.47 13.27 397.33 13.26 397.17 13.26L397.17 4.47C397.33 4.47 397.47 4.45 397.61 4.45C397.75 4.45 397.87 4.44 397.94 4.44ZM412.41 9.91C412.27 9.65 412.08 9.39 411.84 9.21C411.60 9.03 411.35 8.88 411.05 8.75C410.76 8.62 410.44 8.51 410.13 8.41C409.82 8.32 409.51 8.20 409.22 8.11C408.93 7.99 408.66 7.87 408.42 7.71C408.18 7.56 408.00 7.38 407.86 7.15C407.72 6.93 407.64 6.65 407.64 6.31C407.64 6.06 407.69 5.82 407.79 5.59C407.89 5.35 408.03 5.15 408.21 4.97C408.39 4.79 408.62 4.65 408.90 4.55C409.18 4.45 409.49 4.40 409.85 4.40C410.52 4.40 411.14 4.51 411.70 4.75C411.74 5.54 411.77 5.99 411.77 6.06C411.78 6.29 411.87 6.41 412.06 6.41L412.40 6.41L412.40 4.38C411.52 4.00 410.68 3.81 409.85 3.81C409.39 3.81 408.98 3.88 408.62 4.02C408.25 4.16 407.96 4.34 407.72 4.58C407.48 4.82 407.29 5.08 407.16 5.39C407.04 5.70 406.98 6.02 406.98 6.36C406.98 6.78 407.05 7.14 407.19 7.42C407.33 7.70 407.53 7.92 407.76 8.12C408.00 8.32 408.25 8.46 408.55 8.58C408.84 8.71 409.16 8.82 409.47 8.92C409.78 9.02 410.07 9.11 410.38 9.21C410.68 9.31 410.94 9.45 411.18 9.60C411.42 9.76 411.60 9.94 411.74 10.16C411.88 10.39 411.95 10.68 411.95 11.03C411.95 11.35 411.89 11.66 411.78 11.94C411.67 12.22 411.52 12.46 411.31 12.67C411.10 12.88 410.83 13.05 410.52 13.16C410.21 13.29 409.86 13.33 409.47 13.33C408.69 13.33 408.03 13.20 407.50 12.95C407.48 12.75 407.48 12.54 407.47 12.32C407.46 12.10 407.46 11.91 407.44 11.76C407.43 11.61 407.43 11.52 407.43 11.51C407.41 11.28 407.32 11.17 407.12 11.17L406.78 11.17L406.78 13.02L406.78 13.20L406.78 13.38C407.64 13.75 408.52 13.93 409.44 13.93C409.95 13.93 410.40 13.85 410.79 13.69C411.18 13.54 411.52 13.31 411.78 13.05C412.05 12.78 412.27 12.46 412.41 12.10C412.55 11.73 412.62 11.34 412.62 10.92C412.62 10.51 412.55 10.18 412.41 9.91ZM434.07 4.44C434.25 4.42 434.34 4.34 434.34 4.19L434.34 3.91L433.16 3.91L432.45 3.91L431.26 3.91L431.26 4.19C431.26 4.34 431.35 4.42 431.54 4.44L431.68 4.44C431.75 4.44 431.84 4.45 431.98 4.45C432.12 4.45 432.28 4.47 432.45 4.47L432.45 13.26C432.28 13.26 432.12 13.27 431.98 13.27C431.84 13.27 431.75 13.29 431.68 13.29L431.54 13.29C431.35 13.30 431.26 13.38 431.26 13.54L431.26 13.82L432.45 13.82L433.16 13.82L434.34 13.82L434.34 13.54C434.34 13.38 434.25 13.30 434.07 13.29L433.93 13.29C433.86 13.29 433.76 13.27 433.62 13.27C433.48 13.27 433.33 13.26 433.16 13.26L433.16 4.47C433.33 4.47 433.48 4.45 433.62 4.45C433.76 4.45 433.86 4.44 433.93 4.44ZM451.51 3.92L450.88 3.92L449.67 3.92L449.67 4.19C449.67 4.34 449.76 4.42 449.95 4.44L450.09 4.44C450.16 4.44 450.27 4.45 450.41 4.45C450.55 4.45 450.72 4.47 450.88 4.47L450.88 12.22C450.88 12.35 450.88 12.49 450.90 12.63L444.49 4.05C444.44 3.99 444.42 3.95 444.37 3.93C444.33 3.92 444.29 3.91 444.22 3.91L443.87 3.91L442.68 3.91L442.68 4.19C442.68 4.34 442.78 4.42 442.96 4.44L443.10 4.44C443.17 4.44 443.27 4.45 443.41 4.45C443.55 4.45 443.70 4.47 443.87 4.47L443.87 13.26C443.70 13.26 443.55 13.27 443.41 13.27C443.27 13.27 443.17 13.29 443.10 13.29L442.96 13.29C442.78 13.30 442.68 13.38 442.68 13.54L442.68 13.82L443.87 13.82L444.49 13.82L445.70 13.82L445.70 13.54C445.70 13.38 445.61 13.30 445.42 13.29L445.28 13.29C445.21 13.29 445.09 13.27 444.95 13.27C444.81 13.27 444.65 13.26 444.49 13.26L444.49 5.49C444.49 5.36 444.49 5.22 444.47 5.08L450.91 13.68C450.98 13.78 451.05 13.82 451.16 13.82L451.51 13.82L451.51 4.47C451.68 4.47 451.82 4.45 451.96 4.45C452.10 4.45 452.21 4.44 452.28 4.44L452.41 4.44C452.59 4.42 452.69 4.34 452.69 4.19L452.69 3.92ZM468.24 3.92L468.05 3.92L460.75 3.92L460.54 3.92L460.45 3.92L460.45 5.96L460.80 5.96C460.99 5.96 461.08 5.85 461.09 5.63C461.09 5.53 461.12 5.17 461.15 4.52L464.04 4.52L464.04 13.26C463.88 13.26 463.74 13.27 463.60 13.27C463.46 13.27 463.34 13.29 463.27 13.29L463.15 13.29C462.97 13.30 462.87 13.38 462.87 13.54L462.87 13.82L464.04 13.82L464.76 13.82L465.95 13.82L465.95 13.54C465.95 13.38 465.85 13.30 465.67 13.29L465.53 13.29C465.46 13.29 465.36 13.27 465.22 13.27C465.08 13.27 464.93 13.26 464.76 13.26L464.76 4.52L467.64 4.52C467.68 5.24 467.70 5.60 467.70 5.63C467.71 5.85 467.81 5.96 468.01 5.96L468.34 5.96L468.34 3.92ZM485.63 8.86C485.63 8.11 485.51 7.41 485.28 6.79C485.06 6.17 484.74 5.64 484.32 5.19C483.90 4.75 483.41 4.40 482.83 4.16C482.26 3.92 481.60 3.79 480.90 3.79C480.20 3.79 479.57 3.92 479.00 4.16C478.42 4.40 477.92 4.75 477.50 5.19C477.08 5.64 476.76 6.17 476.53 6.79C476.31 7.41 476.18 8.11 476.18 8.86C476.18 9.63 476.31 10.33 476.53 10.95C476.76 11.56 477.08 12.10 477.50 12.54C477.92 12.99 478.42 13.33 479.00 13.57C479.57 13.80 480.20 13.93 480.90 13.93C481.60 13.93 482.26 13.80 482.83 13.57C483.41 13.33 483.90 12.99 484.32 12.54C484.74 12.10 485.06 11.56 485.28 10.95C485.51 10.33 485.63 9.63 485.63 8.86ZM484.88 8.86C484.88 9.56 484.79 10.18 484.60 10.72C484.40 11.27 484.13 11.75 483.78 12.12C483.43 12.50 483.01 12.81 482.52 13.01C482.03 13.20 481.50 13.30 480.90 13.30C480.31 13.30 479.78 13.20 479.29 13.01C478.80 12.81 478.38 12.50 478.03 12.12C477.68 11.75 477.40 11.27 477.20 10.72C477.01 10.18 476.92 9.56 476.92 8.86C476.92 8.18 477.01 7.55 477.20 7.00C477.40 6.45 477.68 5.98 478.03 5.60C478.38 5.22 478.80 4.91 479.29 4.72C479.78 4.52 480.31 4.41 480.90 4.41C481.50 4.41 482.03 4.52 482.52 4.72C483.01 4.91 483.43 5.22 483.78 5.60C484.13 5.98 484.40 6.45 484.60 7.00C484.79 7.55 484.88 8.18 484.88 8.86ZM512.27 13.29L512.18 13.29L511.99 13.29C511.91 13.29 511.83 13.27 511.74 13.27L508.77 9.53C508.69 9.42 508.58 9.32 508.47 9.25C508.90 9.21 509.29 9.11 509.64 8.96C509.99 8.81 510.27 8.61 510.52 8.37C510.76 8.13 510.96 7.85 511.08 7.55C511.21 7.24 511.28 6.89 511.28 6.51C511.28 5.66 511 5.03 510.44 4.58C509.88 4.14 509.03 3.92 507.88 3.92L505.47 3.92L504.29 3.92L504.29 4.19C504.29 4.34 504.38 4.42 504.56 4.44L504.70 4.44C504.77 4.44 504.87 4.45 505.01 4.45C505.15 4.45 505.30 4.47 505.47 4.47L505.47 13.26C505.30 13.26 505.15 13.27 505.01 13.27C504.87 13.27 504.77 13.29 504.70 13.29L504.56 13.29C504.38 13.30 504.28 13.38 504.28 13.54L504.28 13.82L505.47 13.82L506.18 13.82L507.36 13.82L507.36 13.54C507.36 13.38 507.26 13.30 507.08 13.29L506.94 13.29C506.87 13.29 506.77 13.27 506.63 13.27C506.49 13.27 506.35 13.26 506.18 13.26L506.18 9.34L507.36 9.34C507.56 9.34 507.70 9.35 507.78 9.39C507.86 9.44 507.95 9.52 508.03 9.62L511.21 13.64C511.27 13.71 511.31 13.75 511.36 13.78C511.42 13.80 511.49 13.82 511.56 13.82L511.63 13.82L512.18 13.82L512.54 13.82L512.54 13.54C512.54 13.38 512.46 13.30 512.27 13.29ZM507.78 8.81L506.18 8.81L506.18 4.48L507.88 4.48C508.76 4.48 509.43 4.66 509.89 5.00C510.36 5.33 510.58 5.87 510.58 6.57C510.58 6.92 510.52 7.21 510.40 7.49C510.27 7.77 510.08 7.99 509.84 8.19C509.60 8.39 509.31 8.55 508.96 8.65C508.61 8.75 508.21 8.81 507.78 8.81ZM521.93 3.92L520.74 3.92L520.74 4.19C520.74 4.34 520.84 4.42 521.02 4.44L521.16 4.44C521.23 4.44 521.33 4.45 521.47 4.45C521.61 4.45 521.77 4.47 521.93 4.47L521.93 13.26C521.77 13.26 521.61 13.27 521.47 13.27C521.33 13.27 521.23 13.29 521.16 13.29L521.02 13.29C520.84 13.30 520.76 13.38 520.76 13.54L520.76 13.82L521.93 13.82L527.87 13.82L527.87 13.22L527.87 11.76L527.52 11.76C527.32 11.76 527.24 11.89 527.23 12.11C527.23 12.14 527.21 12.19 527.21 12.29C527.21 12.39 527.21 12.53 527.20 12.74C527.18 12.95 527.17 13.09 527.17 13.22L522.65 13.22L522.65 9.09L526.60 9.09L526.60 8.51L522.65 8.51L522.65 4.51L527.17 4.51C527.20 5.12 527.23 5.50 527.23 5.63C527.24 5.85 527.32 5.96 527.52 5.96L527.87 5.96L527.87 4.51L527.87 3.92ZM545.75 13.22L545.29 13.17L541.51 3.91L540.79 3.91L537.00 13.17L536.55 13.22C536.37 13.23 536.28 13.33 536.28 13.50L536.28 13.82L536.73 13.82L537.03 13.82L537.28 13.82L537.38 13.82L538.69 13.82L538.69 13.50C538.69 13.31 538.58 13.23 538.37 13.22C538.36 13.22 538.33 13.20 538.29 13.20C538.24 13.20 538.19 13.19 538.09 13.19C537.99 13.19 537.87 13.19 537.73 13.17L538.71 10.75L538.78 10.57L543.51 10.57L543.58 10.75L544.56 13.17C544.42 13.19 544.31 13.19 544.21 13.19C544.11 13.19 544.04 13.20 544.00 13.20C543.96 13.20 543.93 13.22 543.91 13.22C543.70 13.23 543.59 13.31 543.59 13.50L543.59 13.82L544.91 13.82L545.01 13.82L545.27 13.82L545.55 13.82L546.01 13.82L546.01 13.50C546.01 13.33 545.93 13.23 545.75 13.22ZM540.95 5.22C540.97 5.14 541.02 5.04 541.04 4.94C541.07 4.84 541.11 4.75 541.14 4.63C541.17 4.75 541.21 4.84 541.24 4.94C541.27 5.04 541.31 5.12 541.34 5.21L543.30 10.04L539 10.04ZM560.62 11.97C560.42 11.97 560.34 12.08 560.32 12.31C560.32 12.32 560.32 12.38 560.31 12.43C560.29 12.49 560.29 12.59 560.28 12.71C560.27 12.84 560.25 13.01 560.24 13.20L556.15 13.20L556.15 4.47C556.32 4.47 556.46 4.45 556.60 4.45C556.74 4.45 556.85 4.44 556.92 4.44L557.05 4.44C557.23 4.42 557.33 4.34 557.33 4.19L557.33 3.92L556.15 3.92L555.44 3.92L554.25 3.92L554.25 4.19C554.25 4.34 554.34 4.42 554.53 4.44L554.67 4.44C554.74 4.44 554.83 4.45 554.97 4.45C555.11 4.45 555.27 4.47 555.44 4.47L555.44 13.26C555.27 13.26 555.11 13.27 554.97 13.27C554.83 13.27 554.74 13.29 554.67 13.29L554.53 13.29C554.34 13.30 554.25 13.38 554.25 13.54L554.25 13.82L555.44 13.82L560.71 13.82L560.84 13.82L560.97 13.82L560.97 13.55L560.97 12.99L560.97 11.97L560.69 11.97ZM572.21 4.44C572.39 4.42 572.47 4.34 572.47 4.19L572.47 3.91L571.30 3.91L570.58 3.91L569.39 3.91L569.39 4.19C569.39 4.34 569.49 4.42 569.67 4.44L569.81 4.44C569.88 4.44 569.98 4.45 570.12 4.45C570.26 4.45 570.42 4.47 570.58 4.47L570.58 13.26C570.42 13.26 570.26 13.27 570.12 13.27C569.98 13.27 569.88 13.29 569.81 13.29L569.67 13.29C569.49 13.30 569.39 13.38 569.39 13.54L569.39 13.82L570.58 13.82L571.30 13.82L572.47 13.82L572.47 13.54C572.47 13.38 572.39 13.30 572.21 13.29L572.07 13.29C572.00 13.29 571.90 13.27 571.76 13.27C571.62 13.27 571.47 13.26 571.30 13.26L571.30 4.47C571.47 4.47 571.62 4.45 571.76 4.45C571.90 4.45 572.00 4.44 572.07 4.44ZM588.34 3.92L588.14 3.92L580.85 3.92L580.64 3.92L580.54 3.92L580.54 5.96L580.89 5.96C581.08 5.96 581.17 5.85 581.18 5.63C581.18 5.53 581.21 5.17 581.24 4.52L584.14 4.52L584.14 13.26C583.97 13.26 583.83 13.27 583.69 13.27C583.55 13.27 583.44 13.29 583.37 13.29L583.24 13.29C583.06 13.30 582.96 13.38 582.96 13.54L582.96 13.82L584.14 13.82L584.85 13.82L586.04 13.82L586.04 13.54C586.04 13.38 585.94 13.30 585.76 13.29L585.62 13.29C585.55 13.29 585.45 13.27 585.31 13.27C585.17 13.27 585.02 13.26 584.85 13.26L584.85 4.52L587.73 4.52C587.78 5.24 587.79 5.60 587.79 5.63C587.80 5.85 587.90 5.96 588.10 5.96L588.43 5.96L588.43 3.92ZM604.67 3.92L604.60 3.92L604.04 3.92L603.93 3.92L602.53 3.92L602.53 4.19C602.53 4.34 602.63 4.42 602.81 4.44L602.92 4.44C602.98 4.44 603.05 4.45 603.16 4.45C603.27 4.45 603.40 4.47 603.54 4.47L600.95 8.64C600.88 8.75 600.82 8.85 600.78 8.95C600.74 9.04 600.70 9.16 600.66 9.25C600.61 9.16 600.57 9.04 600.53 8.95C600.49 8.85 600.43 8.75 600.36 8.64L597.76 4.47C597.90 4.47 598.02 4.45 598.14 4.45C598.25 4.45 598.33 4.44 598.39 4.44L598.49 4.44C598.67 4.42 598.77 4.34 598.77 4.19L598.77 3.92L597.37 3.92L597.25 3.92L596.69 3.92L596.62 3.92L596.18 3.92L596.18 4.19C596.18 4.34 596.27 4.42 596.46 4.44C596.69 4.45 596.88 4.47 596.97 4.47L600.29 9.73L600.29 13.26C600.12 13.26 599.97 13.27 599.83 13.27C599.69 13.27 599.59 13.29 599.52 13.29L599.40 13.29C599.21 13.30 599.12 13.38 599.12 13.54L599.12 13.82L600.29 13.82L601.01 13.82L602.18 13.82L602.18 13.54C602.18 13.38 602.10 13.30 601.92 13.29L601.78 13.29C601.71 13.29 601.61 13.27 601.47 13.27C601.33 13.27 601.17 13.26 601.01 13.26L601.01 9.73L604.32 4.47C604.44 4.47 604.60 4.45 604.84 4.44C605.02 4.42 605.12 4.34 605.12 4.19L605.12 3.92Z"></path></g></svg>